<mxfile host="app.diagrams.net" modified="2022-12-12T06:41:54.238Z" agent="5.0 (Macintosh; Intel Mac OS X 10_15_7) AppleWebKit/537.36 (KHTML, like Gecko) Chrome/108.0.0.0 Safari/537.36" version="20.6.0" etag="4K8jwVxRzecaUUcJJ0Zt" type="github">
  <diagram id="Ai2UVPE2DRaaqCUKElvV" name="第 1 页">
    <mxGraphModel dx="1018" dy="732" grid="1" gridSize="10" guides="1" tooltips="1" connect="1" arrows="1" fold="1" page="1" pageScale="1" pageWidth="827" pageHeight="1169" math="0" shadow="0">
      <root>
        <mxCell id="0" />
        <mxCell id="1" parent="0" />
        <mxCell id="XLRWgSgmZebYJ2bYNlgy-2" value="结束" style="strokeWidth=2;html=1;shape=mxgraph.flowchart.terminator;whiteSpace=wrap;sketch=1;fillColor=#d5e8d4;strokeColor=#82b366;fontSize=20;" vertex="1" parent="1">
          <mxGeometry x="100" y="1140" width="180" height="90" as="geometry" />
        </mxCell>
        <mxCell id="XLRWgSgmZebYJ2bYNlgy-5" value="" style="edgeStyle=orthogonalEdgeStyle;rounded=0;orthogonalLoop=1;jettySize=auto;html=1;fillColor=#d5e8d4;strokeColor=#82b366;strokeWidth=2;sketch=1;" edge="1" parent="1" source="XLRWgSgmZebYJ2bYNlgy-3" target="XLRWgSgmZebYJ2bYNlgy-4">
          <mxGeometry relative="1" as="geometry" />
        </mxCell>
        <mxCell id="XLRWgSgmZebYJ2bYNlgy-3" value="开始" style="strokeWidth=2;html=1;shape=mxgraph.flowchart.terminator;whiteSpace=wrap;sketch=1;fontSize=20;fillColor=#d5e8d4;strokeColor=#82b366;" vertex="1" parent="1">
          <mxGeometry x="105" y="50" width="170" height="80" as="geometry" />
        </mxCell>
        <mxCell id="XLRWgSgmZebYJ2bYNlgy-7" value="" style="edgeStyle=orthogonalEdgeStyle;rounded=0;orthogonalLoop=1;jettySize=auto;html=1;fillColor=#d5e8d4;strokeColor=#82b366;strokeWidth=2;sketch=1;" edge="1" parent="1" source="XLRWgSgmZebYJ2bYNlgy-4" target="XLRWgSgmZebYJ2bYNlgy-6">
          <mxGeometry relative="1" as="geometry" />
        </mxCell>
        <mxCell id="XLRWgSgmZebYJ2bYNlgy-21" style="edgeStyle=orthogonalEdgeStyle;rounded=0;sketch=1;orthogonalLoop=1;jettySize=auto;html=1;exitX=1;exitY=0.5;exitDx=0;exitDy=0;entryX=1;entryY=0.5;entryDx=0;entryDy=0;entryPerimeter=0;strokeWidth=2;fontSize=20;fontColor=#FF6666;fillColor=#d5e8d4;strokeColor=#82b366;" edge="1" parent="1" source="XLRWgSgmZebYJ2bYNlgy-4" target="XLRWgSgmZebYJ2bYNlgy-2">
          <mxGeometry relative="1" as="geometry">
            <Array as="points">
              <mxPoint x="460" y="270" />
              <mxPoint x="460" y="1185" />
            </Array>
          </mxGeometry>
        </mxCell>
        <mxCell id="XLRWgSgmZebYJ2bYNlgy-4" value="更新任务开关是否开启" style="rhombus;whiteSpace=wrap;html=1;strokeWidth=2;sketch=1;fontSize=18;fillColor=#d5e8d4;strokeColor=#82b366;" vertex="1" parent="1">
          <mxGeometry x="70" y="200" width="240" height="140" as="geometry" />
        </mxCell>
        <mxCell id="XLRWgSgmZebYJ2bYNlgy-9" value="" style="edgeStyle=orthogonalEdgeStyle;rounded=0;orthogonalLoop=1;jettySize=auto;html=1;fontSize=18;strokeWidth=2;fillColor=#d5e8d4;strokeColor=#82b366;sketch=1;" edge="1" parent="1" source="XLRWgSgmZebYJ2bYNlgy-6" target="XLRWgSgmZebYJ2bYNlgy-8">
          <mxGeometry relative="1" as="geometry" />
        </mxCell>
        <mxCell id="XLRWgSgmZebYJ2bYNlgy-6" value="&lt;p style=&quot;line-height: 140%;&quot;&gt;查询&lt;br style=&quot;font-size: 18px;&quot;&gt;&lt;font color=&quot;#ff6666&quot;&gt;origin_rsc_id = &#39; &#39;&lt;/font&gt; 并且 &lt;font color=&quot;#ff6666&quot;&gt;id&amp;gt;lastId&lt;/font&gt;&amp;nbsp;&lt;br style=&quot;font-size: 18px;&quot;&gt;的reward_log记录&lt;br style=&quot;font-size: 18px;&quot;&gt;限制limit条&lt;/p&gt;" style="whiteSpace=wrap;html=1;strokeWidth=2;sketch=1;fontSize=18;fillColor=#d5e8d4;strokeColor=#82b366;" vertex="1" parent="1">
          <mxGeometry x="52.5" y="430" width="275" height="140" as="geometry" />
        </mxCell>
        <mxCell id="XLRWgSgmZebYJ2bYNlgy-11" value="" style="edgeStyle=orthogonalEdgeStyle;rounded=0;orthogonalLoop=1;jettySize=auto;html=1;fontSize=18;strokeWidth=2;sketch=1;fillColor=#d5e8d4;strokeColor=#82b366;" edge="1" parent="1" source="XLRWgSgmZebYJ2bYNlgy-8" target="XLRWgSgmZebYJ2bYNlgy-10">
          <mxGeometry relative="1" as="geometry" />
        </mxCell>
        <mxCell id="XLRWgSgmZebYJ2bYNlgy-8" value="遍历每条reward_log记录&lt;br&gt;更新其origin_rsc_id" style="whiteSpace=wrap;html=1;fontSize=18;strokeWidth=2;sketch=1;fillColor=#d5e8d4;strokeColor=#82b366;" vertex="1" parent="1">
          <mxGeometry x="53.75" y="670" width="272.5" height="120" as="geometry" />
        </mxCell>
        <mxCell id="XLRWgSgmZebYJ2bYNlgy-12" style="edgeStyle=orthogonalEdgeStyle;rounded=0;orthogonalLoop=1;jettySize=auto;html=1;exitX=0.5;exitY=1;exitDx=0;exitDy=0;fontSize=18;strokeWidth=2;fillColor=#d5e8d4;strokeColor=#82b366;sketch=1;" edge="1" parent="1" source="XLRWgSgmZebYJ2bYNlgy-10" target="XLRWgSgmZebYJ2bYNlgy-2">
          <mxGeometry relative="1" as="geometry" />
        </mxCell>
        <mxCell id="XLRWgSgmZebYJ2bYNlgy-18" style="edgeStyle=orthogonalEdgeStyle;rounded=0;sketch=1;orthogonalLoop=1;jettySize=auto;html=1;exitX=1;exitY=0.5;exitDx=0;exitDy=0;strokeWidth=2;fontSize=20;fontColor=#FF6666;fillColor=#d5e8d4;strokeColor=#82b366;entryX=0.5;entryY=0;entryDx=0;entryDy=0;" edge="1" parent="1" source="XLRWgSgmZebYJ2bYNlgy-10" target="XLRWgSgmZebYJ2bYNlgy-4">
          <mxGeometry relative="1" as="geometry">
            <Array as="points">
              <mxPoint x="390" y="965" />
              <mxPoint x="390" y="200" />
            </Array>
          </mxGeometry>
        </mxCell>
        <mxCell id="XLRWgSgmZebYJ2bYNlgy-10" value="本次查询出来的记录数&lt;br&gt;&lt;font color=&quot;#ff6666&quot;&gt;currSize&amp;gt;=limit&lt;/font&gt;" style="rhombus;whiteSpace=wrap;html=1;fontSize=18;strokeWidth=2;sketch=1;fillColor=#d5e8d4;strokeColor=#82b366;" vertex="1" parent="1">
          <mxGeometry x="36.72" y="880" width="306.56" height="170" as="geometry" />
        </mxCell>
        <mxCell id="XLRWgSgmZebYJ2bYNlgy-15" value="是" style="text;html=1;strokeColor=none;fillColor=none;align=center;verticalAlign=middle;whiteSpace=wrap;rounded=0;sketch=1;fontSize=20;" vertex="1" parent="1">
          <mxGeometry x="140" y="350" width="60" height="30" as="geometry" />
        </mxCell>
        <mxCell id="XLRWgSgmZebYJ2bYNlgy-19" value="是" style="text;html=1;strokeColor=none;fillColor=none;align=center;verticalAlign=middle;whiteSpace=wrap;rounded=0;sketch=1;fontSize=20;" vertex="1" parent="1">
          <mxGeometry x="327.5" y="930" width="60" height="30" as="geometry" />
        </mxCell>
        <mxCell id="XLRWgSgmZebYJ2bYNlgy-20" value="否" style="text;html=1;strokeColor=none;fillColor=none;align=center;verticalAlign=middle;whiteSpace=wrap;rounded=0;sketch=1;fontSize=20;" vertex="1" parent="1">
          <mxGeometry x="140" y="1060" width="60" height="30" as="geometry" />
        </mxCell>
        <mxCell id="XLRWgSgmZebYJ2bYNlgy-22" value="否" style="text;html=1;strokeColor=none;fillColor=none;align=center;verticalAlign=middle;whiteSpace=wrap;rounded=0;sketch=1;fontSize=20;" vertex="1" parent="1">
          <mxGeometry x="300" y="240" width="60" height="30" as="geometry" />
        </mxCell>
      </root>
    </mxGraphModel>
  </diagram>
</mxfile>
